#!OML:ASF I:\Actors\actors\Patient Classification 2\Patient 1\Session 1\actor1.ASF
:FULLY-SPECIFIED
:DEGREES
833
root -0.724059 18.7132 5.54622 -0.1293 4.55828 -3.155
lowerback 11.3374 -0.293086 10.8256
upperback 1.20058 1.20525 4.2949
thorax -4.98643 0.418267 -1.72697
lowerneck -2.35748 -11.6332 -8.95998
upperneck 16.3308 -17.4102 13.2391
head 7.34423 -8.06627 4.27088
rclavicle -6.16232e-015 9.54166e-015
rhumerus 27.8347 -8.07266 -55.378
rradius 69.0131
rwrist -24.8314
rhand -0.125798 -63.2521
rfingers 7.12502
rthumb 25.4699 -268.43
lclavicle -6.16232e-015 9.54166e-015
lhumerus -39.867 -15.3798 100.815
lradius 72.8035
lwrist 17.6112
lhand -5.21468 -27.8967
lfingers 7.12502
lthumb 20.5871 1.03165
rfemur 0 0 0
rtibia 0
rfoot 0 0
rtoes 0
lfemur -7.20058 -2.6568 -10.4048
ltibia 24.3645
lfoot -18.5483 7.1304
ltoes -57.0836
834
root -0.726487 18.7131 5.53787 -0.109401 4.4328 -3.0979
lowerback 11.4675 -0.360366 10.8979
upperback 1.17555 1.15497 4.42437
thorax -5.09346 0.387991 -1.62236
lowerneck -2.30496 -11.5595 -9.14146
upperneck 16.5856 -17.3172 13.1682
head 7.41586 -8.03026 4.2882
rclavicle -4.37326e-015 6.36111e-015
rhumerus 27.55 -8.49691 -57.0434
rradius 71.2245
rwrist -24.302
rhand 0.171978 -59.9058
rfingers 7.12502
rthumb 25.7551 -448.183
lclavicle -4.37326e-015 6.36111e-015
lhumerus -40.0268 -15.093 100.96
lradius 72.8222
lwrist 17.6303
lhand -5.24868 -27.8741
lfingers 7.12502
lthumb 20.5545 1.0577
rfemur 0 0 0
rtibia 0
rfoot 0 0
rtoes 0
lfemur -7.2022 -2.49966 -10.4511
ltibia 24.3392
lfoot -18.5314 7.11804
ltoes -57.0888
835
root -0.729883 18.713 5.52651 -0.118105 4.34535 -3.00867
lowerback 11.6324 -0.397232 11.0064
upperback 1.19672 1.14565 4.46972
thorax -5.16325 0.37909 -1.63317
lowerneck -2.23583 -11.4717 -9.16616
upperneck 16.7364 -17.2241 13.2146
head 7.4475 -7.98145 4.32217
rclavicle 1.33186e-014 4.13472e-014
rhumerus 28.2749 -8.3896 -57.2468
rradius 72.1006
rwrist -24.8164
rhand 0.423996 -57.0086
rfingers 7.12502
rthumb 25.9964 -445.25
lclavicle 1.33186e-014 4.13472e-014
lhumerus -40.1385 -15.1684 101.032
lradius 72.8406
lwrist 17.6978
lhand -5.30871 -27.9097
lfingers 7.12502
lthumb 20.4968 1.02837
rfemur 0 0 0
rtibia 0
rfoot 0 0
rtoes 0
lfemur -7.1915 -2.37271 -10.5311
ltibia 24.3108
lfoot -18.4839 7.10315
ltoes -56.9896
836
root -0.733573 18.7128 5.51352 -0.154595 4.31677 -2.92289
lowerback 11.8193 -0.42935 11.111
upperback 1.25305 1.143 4.52471
thorax -5.20711 0.375842 -1.63283
lowerneck -2.37274 -11.4703 -9.12863
upperneck 16.9548 -17.24 13.1863
head 7.53908 -7.97366 4.29593
rclavicle -5.36719e-015 -3.49861e-014
rhumerus 28.0132 -8.33285 -57.7509
rradius 73.1913
rwrist -24.3036
rhand 0.900855 -52.2321
rfingers 7.12502
rthumb 26.453 -440.406
lclavicle -5.36719e-015 -3.49861e-014
lhumerus -40.134 -15.3918 101.096
lradius 72.8329
lwrist 17.7224
lhand -5.28505 -27.8908
lfingers 7.12502
lthumb 20.5195 1.04483
rfemur 0 0 0
rtibia 0
rfoot 0 0
rtoes 0
lfemur -7.17431 -2.32821 -10.6115
ltibia 24.2812
lfoot -18.3955 7.05842
ltoes -56.8689
837
root -0.736376 18.7121 5.50205 -0.177496 4.24899 -2.87825
lowerback 11.9307 -0.444584 11.2379
upperback 1.34052 1.15369 4.62874
thorax -5.17444 0.383501 -1.59458
lowerneck -2.58328 -11.5029 -9.08786
upperneck 17.1781 -17.2833 13.0701
head 7.64059 -7.98098 4.23256
rclavicle 9.14409e-015 2.06736e-014
rhumerus 27.1381 -8.14078 -58.1802
rradius 74.5665
rwrist -24.3125
rhand 1.57513 -50.2024
rfingers 7.12502
rthumb 27.0982 -438.278
lclavicle 9.14409e-015 2.06736e-014
lhumerus -40.0391 -15.6418 101.211
lradius 72.8191
lwrist 17.7844
lhand -5.09768 -27.7694
lfingers 7.12502
lthumb 20.6996 1.14665
rfemur 0 0 0
rtibia 0
rfoot 0 0
rtoes 0
lfemur -7.15805 -2.22693 -10.6466
ltibia 24.245
lfoot -18.3145 6.98474
ltoes -56.837
